<?xml version="1.0" encoding="utf-8"?>
<!-- Generator: Adobe Illustrator 26.4.1, SVG Export Plug-In . SVG Version: 6.00 Build 0)  -->
<svg version="1.1" id="Layer_2_00000048466646541812161030000010810405936147089566_"
	 xmlns="http://www.w3.org/2000/svg" xmlns:xlink="http://www.w3.org/1999/xlink" x="0px" y="0px" viewBox="0 0 949.6 194.1"
	 style="enable-background:new 0 0 949.6 194.1;" xml:space="preserve">
<style type="text/css">
	.st0{fill:#39ECEB;}
</style>
<g id="Layer_1-2">
	<g>
		<path class="st0" d="M0,14C0,5.8,6.1,0,15.3,0s15.3,5.8,15.3,14s-5.8,14-15.3,14S0,22.1,0,14z M4.5,191.4V54.2h21.6v137.2H4.5z"/>
		<path class="st0" d="M185.4,7.1l-24.2,97.7l20.5-1.8l-5.8,22.9h-20l-16.3,65.6h-29l16.3-65.6H45.3l6.1-24.8l96.9-94H185.4z
			 M131.9,107.4l27.4-83.2l-89.5,88.5L131.9,107.4z"/>
		<path class="st0" d="M326.8,123c0,44.8-17.6,71.1-47.1,71.1c-21.1,0-34.5-13.4-40.6-39.2l-6.3,36.6h-13.7V7.1h21.1v79.5
			c6.3-22.9,19.8-35,39.5-35C308.9,51.6,326.8,77.9,326.8,123L326.8,123z M305.2,123c0-35.5-11.1-54.5-31.3-54.5
			c-14.5,0-26.3,10.5-33.7,30.8v46.9c7.4,20.5,19,31.1,33.7,31.1C294.1,177.2,305.2,158.3,305.2,123L305.2,123z"/>
		<path class="st0" d="M437.7,79.8c0,13.2-4,29.8-10,45.8h-22.4c6.6-14.8,11.3-30.6,11.3-41.9c0-10-4.5-15.8-12.9-15.8
			c-11.6,0-21.6,11.3-28.2,38.7v84.8h-21.6V54.2h14.2l6.1,38.4c5.8-26.3,20.5-41.1,38.5-41.1C428.5,51.6,437.7,62.9,437.7,79.8
			L437.7,79.8z"/>
		<path class="st0" d="M574.6,189.1c-4.2,3.4-11.6,4.7-17.1,4.7c-16.8,0-27.7-11.6-27.7-28.7v-5.8c-8.2,21.9-24,34.8-43.2,34.8
			c-21.9,0-36.6-14.8-36.6-35.8c0-23.2,15.3-38.5,39-38.5c13.4,0,29.8,5.8,40.8,18.7v-40c0-20-9.7-31.3-27.1-31.3
			c-20.8,0-30.5,15-31.3,44.5l-19.8-7.1c1.3-32.9,19.5-52.9,51.1-52.9c29.5,0,48.2,17.1,48.2,47.4v63.7c0,8.4,4,13.2,10.5,13.2
			c3.7,0,7.9-2.1,10.5-5.5L574.6,189.1L574.6,189.1z M529.8,150.1v-5.3c-10.3-8.7-22.6-13.4-33.2-13.4c-15,0-25,10-25,24
			c0,13.2,9.5,22.4,24,22.4C509.3,177.8,522.7,167.2,529.8,150.1L529.8,150.1z"/>
		<path class="st0" d="M692.3,96.9v94.5h-21.6V98.2c0-18.2-9-29-23.7-29c-15.8,0-28.7,11.6-35.5,33.7v88.5h-21.6V54.2h14.2l6.1,37.1
			c6.6-25.5,23.7-39.8,44.5-39.8C677,51.6,692.3,67.2,692.3,96.9L692.3,96.9z"/>
		<path class="st0" d="M804,7.1h21.6v184.3h-14l-6.6-33.7c-6.3,24-19.8,36.3-40,36.3c-29.2,0-46.9-26.3-46.9-71.1
			s17.6-71.4,47.1-71.4c19.2,0,32.1,11.3,38.7,33.2L804,7.1L804,7.1z M804,147.7v-50c-7.4-19.2-18.7-29.2-32.9-29.2
			c-20.5,0-31.3,19-31.3,54.5s11.1,54.3,31.3,54.3C785.3,177.2,796.9,167.2,804,147.7L804,147.7z"/>
		<path class="st0" d="M849.5,143l19.2-6.9c1.8,26.9,16.6,41.9,37.4,41.9c15.3,0,24-7.9,24-19.5c0-34.8-76.4-16.6-76.4-69.3
			c0-22.9,17.1-37.7,43.5-37.7c27.7,0,49,16.1,51.3,49l-19,6.6c0-26.6-13.7-40-32.7-40c-14.2,0-23.4,7.6-23.4,20
			c0,37.9,76.1,19.8,76.1,70.1c0,22.1-17.6,36.9-44.8,36.9C875.8,194.1,851.9,177.5,849.5,143L849.5,143z"/>
	</g>
</g>
</svg>
