<?xml version="1.0" encoding="UTF-8"?>
<svg id="Layer_2" data-name="Layer 2" xmlns="http://www.w3.org/2000/svg" viewBox="0 0 949.59 194.08">
  <defs>
    <style>
      .cls-1 {
        fill: #221f20;
      }
    </style>
  </defs>
  <g id="Layer_1-2" data-name="Layer 1">
    <g>
      <path class="cls-1" d="M0,13.96C0,5.79,6.06,0,15.27,0s15.27,5.79,15.27,13.96-5.79,13.96-15.27,13.96S0,22.12,0,13.96ZM4.48,191.45V54.25H26.07V191.45H4.48Z"/>
      <path class="cls-1" d="M185.39,7.11l-24.23,97.7,20.54-1.84-5.79,22.91h-20.01l-16.33,65.57h-28.97l16.33-65.57H45.29l6.06-24.75L148.26,7.11h37.13Zm-53.46,100.33l27.39-83.21L69.78,112.71l62.15-5.27Z"/>
      <path class="cls-1" d="M326.8,122.98c0,44.77-17.64,71.1-47.14,71.1-21.07,0-34.5-13.43-40.55-39.24l-6.32,36.6h-13.69V7.11h21.07V86.64c6.32-22.91,19.75-35.02,39.5-35.02,29.23,0,47.14,26.33,47.14,71.36Zm-21.59,0c0-35.55-11.06-54.51-31.34-54.51-14.48,0-26.33,10.53-33.71,30.81v46.87c7.37,20.54,18.96,31.07,33.71,31.07,20.28,0,31.34-18.96,31.34-54.25Z"/>
      <path class="cls-1" d="M437.67,79.79c0,13.17-3.95,29.76-10.01,45.82h-22.38c6.58-14.75,11.32-30.55,11.32-41.87,0-10.01-4.48-15.8-12.9-15.8-11.59,0-21.59,11.32-28.18,38.71v84.79h-21.59V54.25h14.22l6.06,38.45c5.79-26.33,20.54-41.08,38.45-41.08,15.8,0,25.02,11.32,25.02,28.18Z"/>
      <path class="cls-1" d="M574.6,189.08c-4.21,3.42-11.59,4.74-17.12,4.74-16.85,0-27.65-11.59-27.65-28.7v-5.79c-8.16,21.86-23.96,34.76-43.19,34.76-21.86,0-36.6-14.75-36.6-35.81,0-23.17,15.27-38.45,38.97-38.45,13.43,0,29.76,5.79,40.82,18.7v-40.03c0-20.01-9.74-31.34-27.12-31.34-20.8,0-30.55,15.01-31.34,44.5l-19.75-7.11c1.32-32.92,19.49-52.93,51.09-52.93,29.49,0,48.19,17.12,48.19,47.4v63.73c0,8.43,3.95,13.17,10.53,13.17,3.69,0,7.9-2.11,10.53-5.53l2.63,18.7Zm-44.77-38.97v-5.27c-10.27-8.69-22.65-13.43-33.18-13.43-15.01,0-25.02,10.01-25.02,23.96,0,13.17,9.48,22.38,23.96,22.38,13.69,0,27.12-10.53,34.23-27.65Z"/>
      <path class="cls-1" d="M692.31,96.91v94.54h-21.59V98.22c0-18.17-8.95-28.97-23.7-28.97-15.8,0-28.7,11.59-35.55,33.71v88.48h-21.59V54.25h14.22l6.06,37.13c6.58-25.54,23.7-39.76,44.5-39.76,22.38,0,37.66,15.54,37.66,45.29Z"/>
      <path class="cls-1" d="M803.97,7.11h21.59V191.45h-13.96l-6.58-33.71c-6.32,23.96-19.75,36.34-40.03,36.34-29.23,0-46.87-26.33-46.87-71.1s17.64-71.36,47.14-71.36c19.22,0,32.13,11.32,38.71,33.18V7.11Zm0,140.62v-50.03c-7.37-19.22-18.7-29.23-32.92-29.23-20.54,0-31.34,18.96-31.34,54.51s11.06,54.25,31.34,54.25c14.22,0,25.81-10.01,32.92-29.49Z"/>
      <path class="cls-1" d="M849.52,142.99l19.22-6.85c1.84,26.86,16.59,41.87,37.39,41.87,15.27,0,23.96-7.9,23.96-19.49,0-34.76-76.37-16.59-76.37-69.26,0-22.91,17.12-37.66,43.45-37.66,27.65,0,48.98,16.06,51.35,48.98l-18.96,6.58c0-26.6-13.69-40.03-32.65-40.03-14.22,0-23.44,7.64-23.44,20.01,0,37.92,76.1,19.75,76.1,70.05,0,22.12-17.64,36.87-44.77,36.87-28.97,0-52.93-16.59-55.3-51.09Z"/>
    </g>
  </g>
</svg>