<?xml version="1.0" encoding="UTF-8"?>
<svg id="Layer_2" data-name="Layer 2" xmlns="http://www.w3.org/2000/svg" viewBox="0 0 423.1 411.11">
  <defs>
    <style>
      .cls-1 {
        fill: #010101;
      }

      .cls-2 {
        fill: #231f20;
      }
    </style>
  </defs>
  <g id="Layer_1-2" data-name="Layer 1">
    <path class="cls-2" d="M82.05,104.2v-22.76h21.72v22.76h-21.72Zm1.03,122.07V122.82h19.66v103.45h-19.66Z"/>
    <path class="cls-2" d="M348.38,226.27v-32.9h-71.17v-19.86l71.38-92.07h19.65v94.35h22.76v17.59h-22.76v32.9h-19.86Zm-51.72-50.48h51.72V109.16l-51.72,66.62Z"/>
    <g>
      <path class="cls-2" d="M4.57,410.41v-48.94H25.9c7.69,0,13.99,4.9,13.99,12.94,0,5.59-3.36,9.44-7.97,11.19,5.52,.91,9.02,5.17,9.02,11.54,0,8.11-6.64,13.28-14.33,13.28H4.57Zm6.99-27.97h13.29c4.89,0,8.04-2.8,8.04-7.34s-3.15-7.34-8.04-7.34H11.57v14.68Zm0,21.68h13.64c5.24,0,8.74-2.8,8.74-7.69s-3.5-7.69-8.74-7.69H11.57v15.38Z"/>
      <path class="cls-2" d="M78.87,410.41v-48.94h20.97c9.09,0,15.38,5.6,15.38,13.29,0,6.29-3.5,10.97-8.04,12.37,5.59,0,7.34,1.96,7.34,6.85v16.43h-6.99v-14.68c0-3.85-1.05-4.9-4.9-4.9h-16.78v19.58h-6.99Zm6.99-25.87h12.93c5.95,0,9.44-3.85,9.44-8.74,0-5.24-3.5-8.04-9.44-8.04h-12.93v16.78Z"/>
      <path class="cls-2" d="M188.82,410.41l-4.9-12.59h-23.35l-4.9,12.59h-7.13l19.36-48.94h8.95l19.23,48.94h-7.27Zm-25.8-18.88h18.46l-9.23-23.63-9.23,23.63Z"/>
      <path class="cls-2" d="M263.39,361.47h6.99v48.94h-9.79l-22.72-40.48v40.48h-6.99v-48.94h9.79l22.72,40.48v-40.48Z"/>
      <path class="cls-2" d="M310.9,410.41v-48.94h17.48c13.63,0,22.72,9.09,22.72,24.47s-9.09,24.47-22.72,24.47h-17.48Zm6.99-6.29h9.79c10.49,0,16.43-6.3,16.43-18.18s-5.94-18.18-16.43-18.18h-9.79v36.36Z"/>
      <path class="cls-2" d="M385.05,394.68h6.99c0,6.64,5.17,10.14,12.52,10.14h.7c6.57,0,10.14-3.28,10.14-7.34s-2.52-6.29-7.69-7.34l-7.83-1.61c-7.83-1.61-12.38-6.01-12.38-13.77s6.92-13.99,17.48-13.99,17.76,5.95,18.11,15.38h-6.99c-.35-5.59-4.82-9.09-10.77-9.09h-.7c-6.08,0-10.14,3.28-10.14,7.62,0,3.77,2.59,6.01,6.71,6.85l7.83,1.54c8.46,1.67,13.35,6.15,13.35,14.12,0,8.6-7.27,13.92-18.11,13.92-11.54,0-18.88-5.6-19.23-16.43Z"/>
    </g>
    <path class="cls-1" d="M23.16,290.3l48.8,21.77c2.52,1.12,4.99-1.64,3.6-4.02l-6.57-11.21H419.92c1.05-.03,2.23,.07,3.17-.07V.5c.05-.33,.02-.58-.37-.48h-1.69s-175.85,0-175.85,0c-.24,5.6-.07,11.61-.12,17.4V206.65c-.07,.24,.15,.77-.15,.78h-8.38s-59.81,0-59.81,0c-.24,.05-.35-.02-.29-.27V.54c-.04-.16,.08-.48-.08-.52H55.33S10.52,.03,10.52,.03c-.75,.05-1.71-.11-2.3,.11V78.31L0,84.71v43.38c0,2.36,2.71,3.69,4.57,2.24l11.04-8.59c1.02-.8,2.46-.8,3.48,0l11.04,8.59c1.86,1.45,4.57,.12,4.57-2.24v-43.38l-8.22-6.39V18.34c.3-.11,.78-.03,1.16-.05H156c.7,.12,1.89-.26,2.18,.26V225.17c0,.18-.02,.38,.02,.53h104.84c.45,.14,.25-.36,.29-.62v-11.93s0-186.04,0-186.04c.03-2.94-.06-5.99,.06-8.83h141.25c.38-.09,.11,.47,.19,.67V278.54c-.48,.07-1.08,.02-1.61,.04h-13.16s-321.07,0-321.07,0l6.57-11.21c1.39-2.38-1.08-5.15-3.6-4.02l-48.8,21.77c-2.24,1-2.24,4.18,0,5.18Z"/>
  </g>
</svg>