<?xml version="1.0" encoding="UTF-8"?>
<svg id="Layer_2" data-name="Layer 2" xmlns="http://www.w3.org/2000/svg" viewBox="0 0 186.67 553.79">
  <g id="Layer_1-2" data-name="Layer 1">
    <g>
      <path d="M112,77.79c0,10.31-8.36,18.66-18.67,18.66s-18.67-8.36-18.67-18.66,8.36-18.67,18.67-18.67,18.67,8.36,18.67,18.67"/>
      <path d="M93.33,0C41.79,0,0,41.8,0,93.35V248.88C0,300.43,41.79,342.23,93.33,342.23s93.33-41.79,93.33-93.35V93.35C186.67,41.8,144.88,0,93.33,0h0Zm80.89,248.88c0,44.61-36.29,80.9-80.89,80.9S12.44,293.49,12.44,248.88V93.35C12.44,48.75,48.73,12.45,93.33,12.45s80.89,36.29,80.89,80.9V248.88Z"/>
      <path d="M176.04,368.94l-82.71,82.71L10.62,368.94c-2.43-2.43-6.37-2.43-8.8,0-2.43,2.43-2.43,6.37,0,8.8l87.11,87.11c1.21,1.21,2.8,1.82,4.4,1.82s3.19-.61,4.4-1.82l87.11-87.11c2.43-2.43,2.43-6.37,0-8.8-2.43-2.43-6.36-2.43-8.8,0h0Z"/>
      <path d="M176.04,456.05l-82.71,82.71L10.62,456.05c-2.43-2.43-6.37-2.43-8.8,0-2.43,2.43-2.43,6.37,0,8.8l87.11,87.11c1.21,1.21,2.8,1.83,4.4,1.83s3.19-.61,4.4-1.82l87.11-87.11c2.43-2.43,2.43-6.37,0-8.8-2.43-2.44-6.36-2.44-8.8,0h0Z"/>
    </g>
  </g>
</svg>