<?xml version="1.0" encoding="utf-8"?>
<!-- Generator: Adobe Illustrator 26.4.1, SVG Export Plug-In . SVG Version: 6.00 Build 0)  -->
<svg version="1.1" id="Layer_2_00000157280394451028180400000014373244419050008504_"
	 xmlns="http://www.w3.org/2000/svg" xmlns:xlink="http://www.w3.org/1999/xlink" x="0px" y="0px" viewBox="0 0 186.7 553.8"
	 style="enable-background:new 0 0 186.7 553.8;" xml:space="preserve">
<style type="text/css">
	.st0{fill:#39ECEB;}
</style>
<g id="Layer_1-2">
	<g>
		<path class="st0" d="M112,77.8c0,10.3-8.4,18.7-18.7,18.7s-18.7-8.4-18.7-18.7S83,59.1,93.3,59.1S112,67.5,112,77.8"/>
		<path class="st0" d="M93.3,0C41.8,0,0,41.8,0,93.3v155.5c0,51.5,41.8,93.4,93.3,93.4s93.3-41.8,93.3-93.4V93.3
			C186.7,41.8,144.9,0,93.3,0L93.3,0z M174.2,248.9c0,44.6-36.3,80.9-80.9,80.9s-80.9-36.3-80.9-80.9V93.3
			c0-44.6,36.3-80.9,80.9-80.9s80.9,36.3,80.9,80.9V248.9z"/>
		<path class="st0" d="M176,368.9l-82.7,82.7l-82.7-82.7c-2.4-2.4-6.4-2.4-8.8,0s-2.4,6.4,0,8.8l87.1,87.1c1.2,1.2,2.8,1.8,4.4,1.8
			s3.2-0.6,4.4-1.8l87.1-87.1c2.4-2.4,2.4-6.4,0-8.8S178.5,366.5,176,368.9L176,368.9z"/>
		<path class="st0" d="M176,456l-82.7,82.7L10.6,456c-2.4-2.4-6.4-2.4-8.8,0s-2.4,6.4,0,8.8L88.9,552c1.2,1.2,2.8,1.8,4.4,1.8
			s3.2-0.6,4.4-1.8l87.1-87.1c2.4-2.4,2.4-6.4,0-8.8C182.4,453.6,178.5,453.6,176,456L176,456L176,456z"/>
	</g>
</g>
</svg>
