<?xml version="1.0" encoding="UTF-8"?>
<svg id="Layer_2" data-name="Layer 2" xmlns="http://www.w3.org/2000/svg" viewBox="0 0 436.8 112.02">
  <g id="Layer_1-2" data-name="Layer 1">
    <path d="M16.8,72.81H103.38c4.8,15.26,15.89,27.74,30.48,34.29,14.59,6.55,31.29,6.55,45.89,0,14.59-6.55,25.68-19.03,30.48-34.29h209.78c6,0,11.55-3.2,14.55-8.4,3-5.2,3-11.6,0-16.8-3-5.2-8.55-8.4-14.55-8.4H210.22c-4.8-15.26-15.89-27.74-30.48-34.29-14.59-6.55-31.29-6.55-45.89,0-14.59,6.55-25.68,19.03-30.48,34.29H16.8c-6,0-11.55,3.2-14.55,8.4-3,5.2-3,11.6,0,16.8,3,5.2,8.55,8.4,14.55,8.4h0ZM156.8,33.61c5.94,0,11.64,2.36,15.84,6.56,4.2,4.2,6.56,9.9,6.56,15.84s-2.36,11.64-6.56,15.84c-4.2,4.2-9.9,6.56-15.84,6.56s-11.64-2.36-15.84-6.56c-4.2-4.2-6.56-9.9-6.56-15.84s2.36-11.64,6.56-15.84c4.2-4.2,9.9-6.56,15.84-6.56Z"/>
  </g>
</svg>